<svg xmlns="http://www.w3.org/2000/svg" viewBox="0 0 513.6 196" width="513.6" height="196" font-family="system-ui, -apple-system, sans-serif"><defs><marker id="ah" viewBox="0 0 10 10" refX="8" refY="5" markerWidth="5.5" markerHeight="5.5" orient="auto-start-reverse"><path d="M0 0 L10 5 L0 10 z" fill="#111827"/></marker><marker id="ahw" viewBox="0 0 10 10" refX="8" refY="5" markerWidth="6" markerHeight="6" orient="auto-start-reverse"><path d="M0 0 L10 5 L0 10 z" fill="#f59e0b"/></marker></defs><g transform="translate(31.6,12.0)"><polygon points="56.0,4.0 73.3,14.0 56.0,24.0 38.6,14.0" fill="#ffffff" stroke="#0f172a" stroke-width="1.4" stroke-linejoin="round" /><polygon points="73.3,14.0 90.6,24.0 73.3,34.0 56.0,24.0" fill="#ffffff" stroke="#0f172a" stroke-width="1.4" stroke-linejoin="round" /><polygon points="90.6,24.0 107.9,34.0 90.6,44.0 73.3,34.0" fill="#ffffff" stroke="#0f172a" stroke-width="1.4" stroke-linejoin="round" /><polygon points="38.6,14.0 56.0,24.0 38.6,34.0 21.3,24.0" fill="#ffffff" stroke="#0f172a" stroke-width="1.4" stroke-linejoin="round" /><polygon points="56.0,24.0 73.3,34.0 56.0,44.0 38.6,34.0" fill="#ffffff" stroke="#0f172a" stroke-width="1.4" stroke-linejoin="round" /><polygon points="73.3,34.0 90.6,44.0 73.3,54.0 56.0,44.0" fill="#ffffff" stroke="#0f172a" stroke-width="1.4" stroke-linejoin="round" /><polygon points="21.3,24.0 38.6,34.0 21.3,44.0 4.0,34.0" fill="#ffffff" stroke="#0f172a" stroke-width="1.4" stroke-linejoin="round" /><polygon points="38.6,34.0 56.0,44.0 38.6,54.0 21.3,44.0" fill="#ffffff" stroke="#0f172a" stroke-width="1.4" stroke-linejoin="round" /><polygon points="56.0,44.0 73.3,54.0 56.0,64.0 38.6,54.0" fill="#ffffff" stroke="#0f172a" stroke-width="1.4" stroke-linejoin="round" /><polygon points="4.0,34.0 21.3,44.0 21.3,64.0 4.0,54.0" fill="#009b48" stroke="#0f172a" stroke-width="1.4" stroke-linejoin="round" /><polygon points="21.3,44.0 38.6,54.0 38.6,74.0 21.3,64.0" fill="#009b48" stroke="#0f172a" stroke-width="1.4" stroke-linejoin="round" /><polygon points="38.6,54.0 56.0,64.0 56.0,84.0 38.6,74.0" fill="#009b48" stroke="#0f172a" stroke-width="1.4" stroke-linejoin="round" /><polygon points="4.0,54.0 21.3,64.0 21.3,84.0 4.0,74.0" fill="#009b48" stroke="#0f172a" stroke-width="1.4" stroke-linejoin="round" /><polygon points="21.3,64.0 38.6,74.0 38.6,94.0 21.3,84.0" fill="#009b48" stroke="#0f172a" stroke-width="1.4" stroke-linejoin="round" /><polygon points="38.6,74.0 56.0,84.0 56.0,104.0 38.6,94.0" fill="#009b48" stroke="#0f172a" stroke-width="1.4" stroke-linejoin="round" /><polygon points="4.0,74.0 21.3,84.0 21.3,104.0 4.0,94.0" fill="#009b48" stroke="#0f172a" stroke-width="1.4" stroke-linejoin="round" /><polygon points="21.3,84.0 38.6,94.0 38.6,114.0 21.3,104.0" fill="#009b48" stroke="#0f172a" stroke-width="1.4" stroke-linejoin="round" /><polygon points="38.6,94.0 56.0,104.0 56.0,124.0 38.6,114.0" fill="#009b48" stroke="#0f172a" stroke-width="1.4" stroke-linejoin="round" /><polygon points="56.0,64.0 73.3,54.0 73.3,74.0 56.0,84.0" fill="#b71234" stroke="#0f172a" stroke-width="1.4" stroke-linejoin="round" /><polygon points="73.3,54.0 90.6,44.0 90.6,64.0 73.3,74.0" fill="#b71234" stroke="#0f172a" stroke-width="1.4" stroke-linejoin="round" /><polygon points="90.6,44.0 107.9,34.0 107.9,54.0 90.6,64.0" fill="#b71234" stroke="#0f172a" stroke-width="1.4" stroke-linejoin="round" /><polygon points="56.0,84.0 73.3,74.0 73.3,94.0 56.0,104.0" fill="#b71234" stroke="#0f172a" stroke-width="1.4" stroke-linejoin="round" /><polygon points="73.3,74.0 90.6,64.0 90.6,84.0 73.3,94.0" fill="#b71234" stroke="#0f172a" stroke-width="1.4" stroke-linejoin="round" /><polygon points="90.6,64.0 107.9,54.0 107.9,74.0 90.6,84.0" fill="#b71234" stroke="#0f172a" stroke-width="1.4" stroke-linejoin="round" /><polygon points="56.0,104.0 73.3,94.0 73.3,114.0 56.0,124.0" fill="#b71234" stroke="#0f172a" stroke-width="1.4" stroke-linejoin="round" /><polygon points="73.3,94.0 90.6,84.0 90.6,104.0 73.3,114.0" fill="#b71234" stroke="#0f172a" stroke-width="1.4" stroke-linejoin="round" /><polygon points="90.6,84.0 107.9,74.0 107.9,94.0 90.6,104.0" fill="#b71234" stroke="#0f172a" stroke-width="1.4" stroke-linejoin="round" /><line x1="64.6" y1="112.0" x2="64.6" y2="66.0" stroke="#111827" stroke-width="3.6" marker-end="url(#ah)" stroke-linecap="round"/></g><text x="87.6" y="156.0" font-size="13" fill="#334155" text-anchor="middle" font-weight="600">R = čtvrtka po směru</text><text x="87.6" y="171.0" font-size="13" fill="#334155" text-anchor="middle" font-weight="400">hodinových ručiček</text><g transform="translate(200.8,12.0)"><polygon points="56.0,4.0 73.3,14.0 56.0,24.0 38.6,14.0" fill="#ffffff" stroke="#0f172a" stroke-width="1.4" stroke-linejoin="round" /><polygon points="73.3,14.0 90.6,24.0 73.3,34.0 56.0,24.0" fill="#ffffff" stroke="#0f172a" stroke-width="1.4" stroke-linejoin="round" /><polygon points="90.6,24.0 107.9,34.0 90.6,44.0 73.3,34.0" fill="#ffffff" stroke="#0f172a" stroke-width="1.4" stroke-linejoin="round" /><polygon points="38.6,14.0 56.0,24.0 38.6,34.0 21.3,24.0" fill="#ffffff" stroke="#0f172a" stroke-width="1.4" stroke-linejoin="round" /><polygon points="56.0,24.0 73.3,34.0 56.0,44.0 38.6,34.0" fill="#ffffff" stroke="#0f172a" stroke-width="1.4" stroke-linejoin="round" /><polygon points="73.3,34.0 90.6,44.0 73.3,54.0 56.0,44.0" fill="#ffffff" stroke="#0f172a" stroke-width="1.4" stroke-linejoin="round" /><polygon points="21.3,24.0 38.6,34.0 21.3,44.0 4.0,34.0" fill="#ffffff" stroke="#0f172a" stroke-width="1.4" stroke-linejoin="round" /><polygon points="38.6,34.0 56.0,44.0 38.6,54.0 21.3,44.0" fill="#ffffff" stroke="#0f172a" stroke-width="1.4" stroke-linejoin="round" /><polygon points="56.0,44.0 73.3,54.0 56.0,64.0 38.6,54.0" fill="#ffffff" stroke="#0f172a" stroke-width="1.4" stroke-linejoin="round" /><polygon points="4.0,34.0 21.3,44.0 21.3,64.0 4.0,54.0" fill="#009b48" stroke="#0f172a" stroke-width="1.4" stroke-linejoin="round" /><polygon points="21.3,44.0 38.6,54.0 38.6,74.0 21.3,64.0" fill="#009b48" stroke="#0f172a" stroke-width="1.4" stroke-linejoin="round" /><polygon points="38.6,54.0 56.0,64.0 56.0,84.0 38.6,74.0" fill="#009b48" stroke="#0f172a" stroke-width="1.4" stroke-linejoin="round" /><polygon points="4.0,54.0 21.3,64.0 21.3,84.0 4.0,74.0" fill="#009b48" stroke="#0f172a" stroke-width="1.4" stroke-linejoin="round" /><polygon points="21.3,64.0 38.6,74.0 38.6,94.0 21.3,84.0" fill="#009b48" stroke="#0f172a" stroke-width="1.4" stroke-linejoin="round" /><polygon points="38.6,74.0 56.0,84.0 56.0,104.0 38.6,94.0" fill="#009b48" stroke="#0f172a" stroke-width="1.4" stroke-linejoin="round" /><polygon points="4.0,74.0 21.3,84.0 21.3,104.0 4.0,94.0" fill="#009b48" stroke="#0f172a" stroke-width="1.4" stroke-linejoin="round" /><polygon points="21.3,84.0 38.6,94.0 38.6,114.0 21.3,104.0" fill="#009b48" stroke="#0f172a" stroke-width="1.4" stroke-linejoin="round" /><polygon points="38.6,94.0 56.0,104.0 56.0,124.0 38.6,114.0" fill="#009b48" stroke="#0f172a" stroke-width="1.4" stroke-linejoin="round" /><polygon points="56.0,64.0 73.3,54.0 73.3,74.0 56.0,84.0" fill="#b71234" stroke="#0f172a" stroke-width="1.4" stroke-linejoin="round" /><polygon points="73.3,54.0 90.6,44.0 90.6,64.0 73.3,74.0" fill="#b71234" stroke="#0f172a" stroke-width="1.4" stroke-linejoin="round" /><polygon points="90.6,44.0 107.9,34.0 107.9,54.0 90.6,64.0" fill="#b71234" stroke="#0f172a" stroke-width="1.4" stroke-linejoin="round" /><polygon points="56.0,84.0 73.3,74.0 73.3,94.0 56.0,104.0" fill="#b71234" stroke="#0f172a" stroke-width="1.4" stroke-linejoin="round" /><polygon points="73.3,74.0 90.6,64.0 90.6,84.0 73.3,94.0" fill="#b71234" stroke="#0f172a" stroke-width="1.4" stroke-linejoin="round" /><polygon points="90.6,64.0 107.9,54.0 107.9,74.0 90.6,84.0" fill="#b71234" stroke="#0f172a" stroke-width="1.4" stroke-linejoin="round" /><polygon points="56.0,104.0 73.3,94.0 73.3,114.0 56.0,124.0" fill="#b71234" stroke="#0f172a" stroke-width="1.4" stroke-linejoin="round" /><polygon points="73.3,94.0 90.6,84.0 90.6,104.0 73.3,114.0" fill="#b71234" stroke="#0f172a" stroke-width="1.4" stroke-linejoin="round" /><polygon points="90.6,84.0 107.9,74.0 107.9,94.0 90.6,104.0" fill="#b71234" stroke="#0f172a" stroke-width="1.4" stroke-linejoin="round" /><line x1="64.6" y1="66.0" x2="64.6" y2="112.0" stroke="#111827" stroke-width="3.6" marker-end="url(#ah)" stroke-linecap="round"/></g><text x="256.8" y="156.0" font-size="13" fill="#334155" text-anchor="middle" font-weight="600">R' = čtvrtka obráceně</text><text x="256.8" y="171.0" font-size="13" fill="#334155" text-anchor="middle" font-weight="400">(čárka)</text><g transform="translate(370.0,12.0)"><polygon points="56.0,4.0 73.3,14.0 56.0,24.0 38.6,14.0" fill="#ffffff" stroke="#0f172a" stroke-width="1.4" stroke-linejoin="round" /><polygon points="73.3,14.0 90.6,24.0 73.3,34.0 56.0,24.0" fill="#ffffff" stroke="#0f172a" stroke-width="1.4" stroke-linejoin="round" /><polygon points="90.6,24.0 107.9,34.0 90.6,44.0 73.3,34.0" fill="#ffffff" stroke="#0f172a" stroke-width="1.4" stroke-linejoin="round" /><polygon points="38.6,14.0 56.0,24.0 38.6,34.0 21.3,24.0" fill="#ffffff" stroke="#0f172a" stroke-width="1.4" stroke-linejoin="round" /><polygon points="56.0,24.0 73.3,34.0 56.0,44.0 38.6,34.0" fill="#ffffff" stroke="#0f172a" stroke-width="1.4" stroke-linejoin="round" /><polygon points="73.3,34.0 90.6,44.0 73.3,54.0 56.0,44.0" fill="#ffffff" stroke="#0f172a" stroke-width="1.4" stroke-linejoin="round" /><polygon points="21.3,24.0 38.6,34.0 21.3,44.0 4.0,34.0" fill="#ffffff" stroke="#0f172a" stroke-width="1.4" stroke-linejoin="round" /><polygon points="38.6,34.0 56.0,44.0 38.6,54.0 21.3,44.0" fill="#ffffff" stroke="#0f172a" stroke-width="1.4" stroke-linejoin="round" /><polygon points="56.0,44.0 73.3,54.0 56.0,64.0 38.6,54.0" fill="#ffffff" stroke="#0f172a" stroke-width="1.4" stroke-linejoin="round" /><polygon points="4.0,34.0 21.3,44.0 21.3,64.0 4.0,54.0" fill="#009b48" stroke="#0f172a" stroke-width="1.4" stroke-linejoin="round" /><polygon points="21.3,44.0 38.6,54.0 38.6,74.0 21.3,64.0" fill="#009b48" stroke="#0f172a" stroke-width="1.4" stroke-linejoin="round" /><polygon points="38.6,54.0 56.0,64.0 56.0,84.0 38.6,74.0" fill="#009b48" stroke="#0f172a" stroke-width="1.4" stroke-linejoin="round" /><polygon points="4.0,54.0 21.3,64.0 21.3,84.0 4.0,74.0" fill="#009b48" stroke="#0f172a" stroke-width="1.4" stroke-linejoin="round" /><polygon points="21.3,64.0 38.6,74.0 38.6,94.0 21.3,84.0" fill="#009b48" stroke="#0f172a" stroke-width="1.4" stroke-linejoin="round" /><polygon points="38.6,74.0 56.0,84.0 56.0,104.0 38.6,94.0" fill="#009b48" stroke="#0f172a" stroke-width="1.4" stroke-linejoin="round" /><polygon points="4.0,74.0 21.3,84.0 21.3,104.0 4.0,94.0" fill="#009b48" stroke="#0f172a" stroke-width="1.4" stroke-linejoin="round" /><polygon points="21.3,84.0 38.6,94.0 38.6,114.0 21.3,104.0" fill="#009b48" stroke="#0f172a" stroke-width="1.4" stroke-linejoin="round" /><polygon points="38.6,94.0 56.0,104.0 56.0,124.0 38.6,114.0" fill="#009b48" stroke="#0f172a" stroke-width="1.4" stroke-linejoin="round" /><polygon points="56.0,64.0 73.3,54.0 73.3,74.0 56.0,84.0" fill="#b71234" stroke="#0f172a" stroke-width="1.4" stroke-linejoin="round" /><polygon points="73.3,54.0 90.6,44.0 90.6,64.0 73.3,74.0" fill="#b71234" stroke="#0f172a" stroke-width="1.4" stroke-linejoin="round" /><polygon points="90.6,44.0 107.9,34.0 107.9,54.0 90.6,64.0" fill="#b71234" stroke="#0f172a" stroke-width="1.4" stroke-linejoin="round" /><polygon points="56.0,84.0 73.3,74.0 73.3,94.0 56.0,104.0" fill="#b71234" stroke="#0f172a" stroke-width="1.4" stroke-linejoin="round" /><polygon points="73.3,74.0 90.6,64.0 90.6,84.0 73.3,94.0" fill="#b71234" stroke="#0f172a" stroke-width="1.4" stroke-linejoin="round" /><polygon points="90.6,64.0 107.9,54.0 107.9,74.0 90.6,84.0" fill="#b71234" stroke="#0f172a" stroke-width="1.4" stroke-linejoin="round" /><polygon points="56.0,104.0 73.3,94.0 73.3,114.0 56.0,124.0" fill="#b71234" stroke="#0f172a" stroke-width="1.4" stroke-linejoin="round" /><polygon points="73.3,94.0 90.6,84.0 90.6,104.0 73.3,114.0" fill="#b71234" stroke="#0f172a" stroke-width="1.4" stroke-linejoin="round" /><polygon points="90.6,84.0 107.9,74.0 107.9,94.0 90.6,104.0" fill="#b71234" stroke="#0f172a" stroke-width="1.4" stroke-linejoin="round" /><line x1="64.6" y1="112.0" x2="64.6" y2="66.0" stroke="#111827" stroke-width="3.6" marker-end="url(#ah)" stroke-linecap="round"/><line x1="99.3" y1="92.0" x2="99.3" y2="46.0" stroke="#111827" stroke-width="3.6" marker-end="url(#ah)" stroke-linecap="round"/></g><text x="426.0" y="156.0" font-size="13" fill="#334155" text-anchor="middle" font-weight="600">R2 = dvakrát</text><text x="426.0" y="171.0" font-size="13" fill="#334155" text-anchor="middle" font-weight="400">(jedno kterým směrem)</text></svg>