<svg xmlns="http://www.w3.org/2000/svg" viewBox="0 0 517.2 210" width="517.2" height="210" font-family="system-ui, -apple-system, sans-serif"><defs><marker id="ah" viewBox="0 0 10 10" refX="8" refY="5" markerWidth="5.5" markerHeight="5.5" orient="auto-start-reverse"><path d="M0 0 L10 5 L0 10 z" fill="#111827"/></marker><marker id="ahw" viewBox="0 0 10 10" refX="8" refY="5" markerWidth="6" markerHeight="6" orient="auto-start-reverse"><path d="M0 0 L10 5 L0 10 z" fill="#f59e0b"/></marker></defs><g transform="translate(61.8,12.0)"><rect x="18" y="0" width="34" height="15" fill="#c3c9d4" stroke="#0f172a" stroke-width="1.2" rx="2"/><rect x="52" y="0" width="34" height="15" fill="#0046ad" stroke="#0f172a" stroke-width="1.2" rx="2"/><rect x="86" y="0" width="34" height="15" fill="#c3c9d4" stroke="#0f172a" stroke-width="1.2" rx="2"/><rect x="123" y="18" width="15" height="34" fill="#c3c9d4" stroke="#0f172a" stroke-width="1.2" rx="2"/><rect x="123" y="52" width="15" height="34" fill="#ff5800" stroke="#0f172a" stroke-width="1.2" rx="2"/><rect x="123" y="86" width="15" height="34" fill="#c3c9d4" stroke="#0f172a" stroke-width="1.2" rx="2"/><rect x="18" y="123" width="34" height="15" fill="#c3c9d4" stroke="#0f172a" stroke-width="1.2" rx="2"/><rect x="52" y="123" width="34" height="15" fill="#b71234" stroke="#0f172a" stroke-width="1.2" rx="2"/><rect x="86" y="123" width="34" height="15" fill="#c3c9d4" stroke="#0f172a" stroke-width="1.2" rx="2"/><rect x="0" y="18" width="15" height="34" fill="#c3c9d4" stroke="#0f172a" stroke-width="1.2" rx="2"/><rect x="0" y="52" width="15" height="34" fill="#009b48" stroke="#0f172a" stroke-width="1.2" rx="2"/><rect x="0" y="86" width="15" height="34" fill="#c3c9d4" stroke="#0f172a" stroke-width="1.2" rx="2"/><rect x="18" y="18" width="34" height="34" fill="#c3c9d4" stroke="#0f172a" stroke-width="1.4" rx="3"/><rect x="52" y="18" width="34" height="34" fill="#ffd500" stroke="#0f172a" stroke-width="1.4" rx="3"/><rect x="86" y="18" width="34" height="34" fill="#c3c9d4" stroke="#0f172a" stroke-width="1.4" rx="3"/><rect x="18" y="52" width="34" height="34" fill="#ffd500" stroke="#0f172a" stroke-width="1.4" rx="3"/><rect x="52" y="52" width="34" height="34" fill="#ffd500" stroke="#0f172a" stroke-width="1.4" rx="3"/><rect x="86" y="52" width="34" height="34" fill="#ffd500" stroke="#0f172a" stroke-width="1.4" rx="3"/><rect x="18" y="86" width="34" height="34" fill="#c3c9d4" stroke="#0f172a" stroke-width="1.4" rx="3"/><rect x="52" y="86" width="34" height="34" fill="#ffd500" stroke="#0f172a" stroke-width="1.4" rx="3"/><rect x="86" y="86" width="34" height="34" fill="#c3c9d4" stroke="#0f172a" stroke-width="1.4" rx="3"/><text x="69.0" y="8.5" font-size="15" font-weight="700" fill="#111827" text-anchor="middle" dominant-baseline="central">✓</text><text x="130.5" y="70.0" font-size="15" font-weight="700" fill="#111827" text-anchor="middle" dominant-baseline="central">✓</text><text x="69.0" y="131.5" font-size="15" font-weight="700" fill="#111827" text-anchor="middle" dominant-baseline="central">✗</text><text x="7.5" y="70.0" font-size="15" font-weight="700" fill="#111827" text-anchor="middle" dominant-baseline="central">✗</text></g><text x="130.8" y="166.0" font-size="13" fill="#334155" text-anchor="middle" font-weight="600">Dvě správné VEDLE SEBE:</text><text x="130.8" y="181.0" font-size="13" fill="#334155" text-anchor="middle" font-weight="400">dej je dozadu + doprava, pak Sune</text><g transform="translate(317.4,12.0)"><rect x="18" y="0" width="34" height="15" fill="#c3c9d4" stroke="#0f172a" stroke-width="1.2" rx="2"/><rect x="52" y="0" width="34" height="15" fill="#0046ad" stroke="#0f172a" stroke-width="1.2" rx="2"/><rect x="86" y="0" width="34" height="15" fill="#c3c9d4" stroke="#0f172a" stroke-width="1.2" rx="2"/><rect x="18" y="123" width="34" height="15" fill="#c3c9d4" stroke="#0f172a" stroke-width="1.2" rx="2"/><rect x="52" y="123" width="34" height="15" fill="#009b48" stroke="#0f172a" stroke-width="1.2" rx="2"/><rect x="86" y="123" width="34" height="15" fill="#c3c9d4" stroke="#0f172a" stroke-width="1.2" rx="2"/><rect x="123" y="18" width="15" height="34" fill="#c3c9d4" stroke="#0f172a" stroke-width="1.2" rx="2"/><rect x="123" y="52" width="15" height="34" fill="#b71234" stroke="#0f172a" stroke-width="1.2" rx="2"/><rect x="123" y="86" width="15" height="34" fill="#c3c9d4" stroke="#0f172a" stroke-width="1.2" rx="2"/><rect x="0" y="18" width="15" height="34" fill="#c3c9d4" stroke="#0f172a" stroke-width="1.2" rx="2"/><rect x="0" y="52" width="15" height="34" fill="#ff5800" stroke="#0f172a" stroke-width="1.2" rx="2"/><rect x="0" y="86" width="15" height="34" fill="#c3c9d4" stroke="#0f172a" stroke-width="1.2" rx="2"/><rect x="18" y="18" width="34" height="34" fill="#c3c9d4" stroke="#0f172a" stroke-width="1.4" rx="3"/><rect x="52" y="18" width="34" height="34" fill="#ffd500" stroke="#0f172a" stroke-width="1.4" rx="3"/><rect x="86" y="18" width="34" height="34" fill="#c3c9d4" stroke="#0f172a" stroke-width="1.4" rx="3"/><rect x="18" y="52" width="34" height="34" fill="#ffd500" stroke="#0f172a" stroke-width="1.4" rx="3"/><rect x="52" y="52" width="34" height="34" fill="#ffd500" stroke="#0f172a" stroke-width="1.4" rx="3"/><rect x="86" y="52" width="34" height="34" fill="#ffd500" stroke="#0f172a" stroke-width="1.4" rx="3"/><rect x="18" y="86" width="34" height="34" fill="#c3c9d4" stroke="#0f172a" stroke-width="1.4" rx="3"/><rect x="52" y="86" width="34" height="34" fill="#ffd500" stroke="#0f172a" stroke-width="1.4" rx="3"/><rect x="86" y="86" width="34" height="34" fill="#c3c9d4" stroke="#0f172a" stroke-width="1.4" rx="3"/><text x="69.0" y="8.5" font-size="15" font-weight="700" fill="#111827" text-anchor="middle" dominant-baseline="central">✓</text><text x="69.0" y="131.5" font-size="15" font-weight="700" fill="#111827" text-anchor="middle" dominant-baseline="central">✓</text><text x="130.5" y="70.0" font-size="15" font-weight="700" fill="#111827" text-anchor="middle" dominant-baseline="central">✗</text><text x="7.5" y="70.0" font-size="15" font-weight="700" fill="#111827" text-anchor="middle" dominant-baseline="central">✗</text></g><text x="386.4" y="166.0" font-size="13" fill="#334155" text-anchor="middle" font-weight="600">Dvě správné NAPROTI:</text><text x="386.4" y="181.0" font-size="13" fill="#334155" text-anchor="middle" font-weight="400">Sune odkudkoli, pak znovu</text></svg>