<svg xmlns="http://www.w3.org/2000/svg" viewBox="0 0 560 310" width="560" height="310" font-family="system-ui, -apple-system, sans-serif"><defs><marker id="ah" viewBox="0 0 10 10" refX="8" refY="5" markerWidth="5.5" markerHeight="5.5" orient="auto-start-reverse"><path d="M0 0 L10 5 L0 10 z" fill="#111827"/></marker><marker id="ahw" viewBox="0 0 10 10" refX="8" refY="5" markerWidth="6" markerHeight="6" orient="auto-start-reverse"><path d="M0 0 L10 5 L0 10 z" fill="#f59e0b"/></marker></defs><text x="280.0" y="20" font-size="15" fill="#0f172a" font-weight="700" text-anchor="middle">Typická cesta: od 10 minut ke 2 minutám</text><line x1="60" y1="240" x2="520" y2="240" stroke="#64748b" stroke-width="1.5"/><line x1="60" y1="30" x2="60" y2="240" stroke="#64748b" stroke-width="1.5"/><path d="M60 30 L118 82 L175 124 L232 146 L290 152 L348 173 L405 188 L462 194 L520 198" fill="none" stroke="#7c3aed" stroke-width="4" stroke-linecap="round"/><circle cx="60" cy="30" r="4" fill="#7c3aed"/><circle cx="118" cy="82" r="4" fill="#7c3aed"/><circle cx="175" cy="124" r="4" fill="#7c3aed"/><circle cx="232" cy="146" r="4" fill="#7c3aed"/><circle cx="290" cy="152" r="4" fill="#7c3aed"/><circle cx="348" cy="173" r="4" fill="#7c3aed"/><circle cx="405" cy="188" r="4" fill="#7c3aed"/><circle cx="462" cy="194" r="4" fill="#7c3aed"/><circle cx="520" cy="198" r="4" fill="#7c3aed"/><text x="60.0" y="258" font-size="12" fill="#64748b" font-weight="400" text-anchor="middle">0</text><text x="117.5" y="258" font-size="12" fill="#64748b" font-weight="400" text-anchor="middle">1</text><text x="175.0" y="258" font-size="12" fill="#64748b" font-weight="400" text-anchor="middle">2</text><text x="232.5" y="258" font-size="12" fill="#64748b" font-weight="400" text-anchor="middle">3</text><text x="290.0" y="258" font-size="12" fill="#64748b" font-weight="400" text-anchor="middle">4</text><text x="347.5" y="258" font-size="12" fill="#64748b" font-weight="400" text-anchor="middle">5</text><text x="405.0" y="258" font-size="12" fill="#64748b" font-weight="400" text-anchor="middle">6</text><text x="462.5" y="258" font-size="12" fill="#64748b" font-weight="400" text-anchor="middle">7</text><text x="520.0" y="258" font-size="12" fill="#64748b" font-weight="400" text-anchor="middle">8</text><text x="52" y="202.0" font-size="12" fill="#64748b" font-weight="400" text-anchor="end">2</text><text x="52" y="160.0" font-size="12" fill="#64748b" font-weight="400" text-anchor="end">4</text><text x="52" y="118.0" font-size="12" fill="#64748b" font-weight="400" text-anchor="end">6</text><text x="52" y="76.0" font-size="12" fill="#64748b" font-weight="400" text-anchor="end">8</text><text x="52" y="34.0" font-size="12" fill="#64748b" font-weight="400" text-anchor="end">10</text><text x="290.0" y="278" font-size="13" fill="#64748b" font-weight="600" text-anchor="middle">týdny tréninku (15 min denně)</text><text transform="rotate(-90 16 135.0)" x="16" y="135.0" font-size="13" fill="#64748b" font-weight="600" text-anchor="middle">minuty</text><text x="271.25" y="133.6" font-size="12" fill="#dc2626" font-weight="600" text-anchor="start">plató = normální fáze,</text><text x="271.25" y="147.6" font-size="12" fill="#dc2626" font-weight="600" text-anchor="start">ne konec (K19)</text></svg>