<svg xmlns="http://www.w3.org/2000/svg" viewBox="0 0 740.4 190" width="740.4" height="190" font-family="system-ui, -apple-system, sans-serif"><defs><marker id="ah" viewBox="0 0 10 10" refX="8" refY="5" markerWidth="5.5" markerHeight="5.5" orient="auto-start-reverse"><path d="M0 0 L10 5 L0 10 z" fill="#111827"/></marker><marker id="ahw" viewBox="0 0 10 10" refX="8" refY="5" markerWidth="6" markerHeight="6" orient="auto-start-reverse"><path d="M0 0 L10 5 L0 10 z" fill="#f59e0b"/></marker></defs><g transform="translate(41.4,12.0)"><polygon points="53.4,4.0 69.8,13.5 53.4,23.0 36.9,13.5" fill="#c3c9d4" stroke="#0f172a" stroke-width="1.4" stroke-linejoin="round" /><polygon points="69.8,13.5 86.3,23.0 69.8,32.5 53.4,23.0" fill="#ffffff" stroke="#0f172a" stroke-width="1.4" stroke-linejoin="round" /><polygon points="86.3,23.0 102.7,32.5 86.3,42.0 69.8,32.5" fill="#c3c9d4" stroke="#0f172a" stroke-width="1.4" stroke-linejoin="round" /><polygon points="36.9,13.5 53.4,23.0 36.9,32.5 20.5,23.0" fill="#ffffff" stroke="#0f172a" stroke-width="1.4" stroke-linejoin="round" /><polygon points="53.4,23.0 69.8,32.5 53.4,42.0 36.9,32.5" fill="#ffffff" stroke="#0f172a" stroke-width="1.4" stroke-linejoin="round" /><polygon points="69.8,32.5 86.3,42.0 69.8,51.5 53.4,42.0" fill="#ffffff" stroke="#0f172a" stroke-width="1.4" stroke-linejoin="round" /><polygon points="20.5,23.0 36.9,32.5 20.5,42.0 4.0,32.5" fill="#c3c9d4" stroke="#0f172a" stroke-width="1.4" stroke-linejoin="round" /><polygon points="36.9,32.5 53.4,42.0 36.9,51.5 20.5,42.0" fill="#ffffff" stroke="#0f172a" stroke-width="1.4" stroke-linejoin="round" /><polygon points="53.4,42.0 69.8,51.5 53.4,61.0 36.9,51.5" fill="#c3c9d4" stroke="#0f172a" stroke-width="1.4" stroke-linejoin="round" /><polygon points="4.0,32.5 20.5,42.0 20.5,61.0 4.0,51.5" fill="#c3c9d4" stroke="#0f172a" stroke-width="1.4" stroke-linejoin="round" /><polygon points="20.5,42.0 36.9,51.5 36.9,70.5 20.5,61.0" fill="#009b48" stroke="#0f172a" stroke-width="1.4" stroke-linejoin="round" /><polygon points="36.9,51.5 53.4,61.0 53.4,80.0 36.9,70.5" fill="#c3c9d4" stroke="#0f172a" stroke-width="1.4" stroke-linejoin="round" /><polygon points="4.0,51.5 20.5,61.0 20.5,80.0 4.0,70.5" fill="#c3c9d4" stroke="#0f172a" stroke-width="1.4" stroke-linejoin="round" /><polygon points="20.5,61.0 36.9,70.5 36.9,89.5 20.5,80.0" fill="#009b48" stroke="#0f172a" stroke-width="1.4" stroke-linejoin="round" /><polygon points="36.9,70.5 53.4,80.0 53.4,99.0 36.9,89.5" fill="#c3c9d4" stroke="#0f172a" stroke-width="1.4" stroke-linejoin="round" /><polygon points="4.0,70.5 20.5,80.0 20.5,99.0 4.0,89.5" fill="#c3c9d4" stroke="#0f172a" stroke-width="1.4" stroke-linejoin="round" /><polygon points="20.5,80.0 36.9,89.5 36.9,108.5 20.5,99.0" fill="#c3c9d4" stroke="#0f172a" stroke-width="1.4" stroke-linejoin="round" /><polygon points="36.9,89.5 53.4,99.0 53.4,118.0 36.9,108.5" fill="#c3c9d4" stroke="#0f172a" stroke-width="1.4" stroke-linejoin="round" /><polygon points="53.4,61.0 69.8,51.5 69.8,70.5 53.4,80.0" fill="#c3c9d4" stroke="#0f172a" stroke-width="1.4" stroke-linejoin="round" /><polygon points="69.8,51.5 86.3,42.0 86.3,61.0 69.8,70.5" fill="#b71234" stroke="#0f172a" stroke-width="1.4" stroke-linejoin="round" /><polygon points="86.3,42.0 102.7,32.5 102.7,51.5 86.3,61.0" fill="#c3c9d4" stroke="#0f172a" stroke-width="1.4" stroke-linejoin="round" /><polygon points="53.4,80.0 69.8,70.5 69.8,89.5 53.4,99.0" fill="#c3c9d4" stroke="#0f172a" stroke-width="1.4" stroke-linejoin="round" /><polygon points="69.8,70.5 86.3,61.0 86.3,80.0 69.8,89.5" fill="#b71234" stroke="#0f172a" stroke-width="1.4" stroke-linejoin="round" /><polygon points="86.3,61.0 102.7,51.5 102.7,70.5 86.3,80.0" fill="#c3c9d4" stroke="#0f172a" stroke-width="1.4" stroke-linejoin="round" /><polygon points="53.4,99.0 69.8,89.5 69.8,108.5 53.4,118.0" fill="#c3c9d4" stroke="#0f172a" stroke-width="1.4" stroke-linejoin="round" /><polygon points="69.8,89.5 86.3,80.0 86.3,99.0 69.8,108.5" fill="#c3c9d4" stroke="#0f172a" stroke-width="1.4" stroke-linejoin="round" /><polygon points="86.3,80.0 102.7,70.5 102.7,89.5 86.3,99.0" fill="#c3c9d4" stroke="#0f172a" stroke-width="1.4" stroke-linejoin="round" /></g><text x="94.8" y="150.0" font-size="13" fill="#334155" text-anchor="middle" font-weight="600">1 CROSS: kříž dole</text><text x="94.8" y="165.0" font-size="13" fill="#334155" text-anchor="middle" font-weight="400">(zde bílou nahoru)</text><g transform="translate(225.0,12.0)"><polygon points="53.4,4.0 69.8,13.5 53.4,23.0 36.9,13.5" fill="#ffffff" stroke="#0f172a" stroke-width="1.4" stroke-linejoin="round" /><polygon points="69.8,13.5 86.3,23.0 69.8,32.5 53.4,23.0" fill="#ffffff" stroke="#0f172a" stroke-width="1.4" stroke-linejoin="round" /><polygon points="86.3,23.0 102.7,32.5 86.3,42.0 69.8,32.5" fill="#ffffff" stroke="#0f172a" stroke-width="1.4" stroke-linejoin="round" /><polygon points="36.9,13.5 53.4,23.0 36.9,32.5 20.5,23.0" fill="#ffffff" stroke="#0f172a" stroke-width="1.4" stroke-linejoin="round" /><polygon points="53.4,23.0 69.8,32.5 53.4,42.0 36.9,32.5" fill="#ffffff" stroke="#0f172a" stroke-width="1.4" stroke-linejoin="round" /><polygon points="69.8,32.5 86.3,42.0 69.8,51.5 53.4,42.0" fill="#ffffff" stroke="#0f172a" stroke-width="1.4" stroke-linejoin="round" /><polygon points="20.5,23.0 36.9,32.5 20.5,42.0 4.0,32.5" fill="#ffffff" stroke="#0f172a" stroke-width="1.4" stroke-linejoin="round" /><polygon points="36.9,32.5 53.4,42.0 36.9,51.5 20.5,42.0" fill="#ffffff" stroke="#0f172a" stroke-width="1.4" stroke-linejoin="round" /><polygon points="53.4,42.0 69.8,51.5 53.4,61.0 36.9,51.5" fill="#ffffff" stroke="#0f172a" stroke-width="1.4" stroke-linejoin="round" /><polygon points="4.0,32.5 20.5,42.0 20.5,61.0 4.0,51.5" fill="#009b48" stroke="#0f172a" stroke-width="1.4" stroke-linejoin="round" /><polygon points="20.5,42.0 36.9,51.5 36.9,70.5 20.5,61.0" fill="#009b48" stroke="#0f172a" stroke-width="1.4" stroke-linejoin="round" /><polygon points="36.9,51.5 53.4,61.0 53.4,80.0 36.9,70.5" fill="#009b48" stroke="#0f172a" stroke-width="1.4" stroke-linejoin="round" /><polygon points="4.0,51.5 20.5,61.0 20.5,80.0 4.0,70.5" fill="#009b48" stroke="#0f172a" stroke-width="1.4" stroke-linejoin="round" /><polygon points="20.5,61.0 36.9,70.5 36.9,89.5 20.5,80.0" fill="#009b48" stroke="#0f172a" stroke-width="1.4" stroke-linejoin="round" /><polygon points="36.9,70.5 53.4,80.0 53.4,99.0 36.9,89.5" fill="#009b48" stroke="#0f172a" stroke-width="1.4" stroke-linejoin="round" /><polygon points="4.0,70.5 20.5,80.0 20.5,99.0 4.0,89.5" fill="#c3c9d4" stroke="#0f172a" stroke-width="1.4" stroke-linejoin="round" /><polygon points="20.5,80.0 36.9,89.5 36.9,108.5 20.5,99.0" fill="#c3c9d4" stroke="#0f172a" stroke-width="1.4" stroke-linejoin="round" /><polygon points="36.9,89.5 53.4,99.0 53.4,118.0 36.9,108.5" fill="#c3c9d4" stroke="#0f172a" stroke-width="1.4" stroke-linejoin="round" /><polygon points="53.4,61.0 69.8,51.5 69.8,70.5 53.4,80.0" fill="#b71234" stroke="#0f172a" stroke-width="1.4" stroke-linejoin="round" /><polygon points="69.8,51.5 86.3,42.0 86.3,61.0 69.8,70.5" fill="#b71234" stroke="#0f172a" stroke-width="1.4" stroke-linejoin="round" /><polygon points="86.3,42.0 102.7,32.5 102.7,51.5 86.3,61.0" fill="#b71234" stroke="#0f172a" stroke-width="1.4" stroke-linejoin="round" /><polygon points="53.4,80.0 69.8,70.5 69.8,89.5 53.4,99.0" fill="#b71234" stroke="#0f172a" stroke-width="1.4" stroke-linejoin="round" /><polygon points="69.8,70.5 86.3,61.0 86.3,80.0 69.8,89.5" fill="#b71234" stroke="#0f172a" stroke-width="1.4" stroke-linejoin="round" /><polygon points="86.3,61.0 102.7,51.5 102.7,70.5 86.3,80.0" fill="#b71234" stroke="#0f172a" stroke-width="1.4" stroke-linejoin="round" /><polygon points="53.4,99.0 69.8,89.5 69.8,108.5 53.4,118.0" fill="#c3c9d4" stroke="#0f172a" stroke-width="1.4" stroke-linejoin="round" /><polygon points="69.8,89.5 86.3,80.0 86.3,99.0 69.8,108.5" fill="#c3c9d4" stroke="#0f172a" stroke-width="1.4" stroke-linejoin="round" /><polygon points="86.3,80.0 102.7,70.5 102.7,89.5 86.3,99.0" fill="#c3c9d4" stroke="#0f172a" stroke-width="1.4" stroke-linejoin="round" /></g><text x="278.4" y="150.0" font-size="13" fill="#334155" text-anchor="middle" font-weight="600">2 F2L: první dvě vrstvy</text><text x="278.4" y="165.0" font-size="13" fill="#334155" text-anchor="middle" font-weight="400">po 4 párech</text><g transform="translate(408.6,12.0)"><polygon points="53.4,4.0 69.8,13.5 53.4,23.0 36.9,13.5" fill="#ffd500" stroke="#0f172a" stroke-width="1.4" stroke-linejoin="round" /><polygon points="69.8,13.5 86.3,23.0 69.8,32.5 53.4,23.0" fill="#ffd500" stroke="#0f172a" stroke-width="1.4" stroke-linejoin="round" /><polygon points="86.3,23.0 102.7,32.5 86.3,42.0 69.8,32.5" fill="#ffd500" stroke="#0f172a" stroke-width="1.4" stroke-linejoin="round" /><polygon points="36.9,13.5 53.4,23.0 36.9,32.5 20.5,23.0" fill="#ffd500" stroke="#0f172a" stroke-width="1.4" stroke-linejoin="round" /><polygon points="53.4,23.0 69.8,32.5 53.4,42.0 36.9,32.5" fill="#ffd500" stroke="#0f172a" stroke-width="1.4" stroke-linejoin="round" /><polygon points="69.8,32.5 86.3,42.0 69.8,51.5 53.4,42.0" fill="#ffd500" stroke="#0f172a" stroke-width="1.4" stroke-linejoin="round" /><polygon points="20.5,23.0 36.9,32.5 20.5,42.0 4.0,32.5" fill="#ffd500" stroke="#0f172a" stroke-width="1.4" stroke-linejoin="round" /><polygon points="36.9,32.5 53.4,42.0 36.9,51.5 20.5,42.0" fill="#ffd500" stroke="#0f172a" stroke-width="1.4" stroke-linejoin="round" /><polygon points="53.4,42.0 69.8,51.5 53.4,61.0 36.9,51.5" fill="#ffd500" stroke="#0f172a" stroke-width="1.4" stroke-linejoin="round" /><polygon points="4.0,32.5 20.5,42.0 20.5,61.0 4.0,51.5" fill="#0046ad" stroke="#0f172a" stroke-width="1.4" stroke-linejoin="round" /><polygon points="20.5,42.0 36.9,51.5 36.9,70.5 20.5,61.0" fill="#b71234" stroke="#0f172a" stroke-width="1.4" stroke-linejoin="round" /><polygon points="36.9,51.5 53.4,61.0 53.4,80.0 36.9,70.5" fill="#ff5800" stroke="#0f172a" stroke-width="1.4" stroke-linejoin="round" /><polygon points="4.0,51.5 20.5,61.0 20.5,80.0 4.0,70.5" fill="#009b48" stroke="#0f172a" stroke-width="1.4" stroke-linejoin="round" /><polygon points="20.5,61.0 36.9,70.5 36.9,89.5 20.5,80.0" fill="#009b48" stroke="#0f172a" stroke-width="1.4" stroke-linejoin="round" /><polygon points="36.9,70.5 53.4,80.0 53.4,99.0 36.9,89.5" fill="#009b48" stroke="#0f172a" stroke-width="1.4" stroke-linejoin="round" /><polygon points="4.0,70.5 20.5,80.0 20.5,99.0 4.0,89.5" fill="#009b48" stroke="#0f172a" stroke-width="1.4" stroke-linejoin="round" /><polygon points="20.5,80.0 36.9,89.5 36.9,108.5 20.5,99.0" fill="#009b48" stroke="#0f172a" stroke-width="1.4" stroke-linejoin="round" /><polygon points="36.9,89.5 53.4,99.0 53.4,118.0 36.9,108.5" fill="#009b48" stroke="#0f172a" stroke-width="1.4" stroke-linejoin="round" /><polygon points="53.4,61.0 69.8,51.5 69.8,70.5 53.4,80.0" fill="#009b48" stroke="#0f172a" stroke-width="1.4" stroke-linejoin="round" /><polygon points="69.8,51.5 86.3,42.0 86.3,61.0 69.8,70.5" fill="#0046ad" stroke="#0f172a" stroke-width="1.4" stroke-linejoin="round" /><polygon points="86.3,42.0 102.7,32.5 102.7,51.5 86.3,61.0" fill="#b71234" stroke="#0f172a" stroke-width="1.4" stroke-linejoin="round" /><polygon points="53.4,80.0 69.8,70.5 69.8,89.5 53.4,99.0" fill="#ff5800" stroke="#0f172a" stroke-width="1.4" stroke-linejoin="round" /><polygon points="69.8,70.5 86.3,61.0 86.3,80.0 69.8,89.5" fill="#ff5800" stroke="#0f172a" stroke-width="1.4" stroke-linejoin="round" /><polygon points="86.3,61.0 102.7,51.5 102.7,70.5 86.3,80.0" fill="#ff5800" stroke="#0f172a" stroke-width="1.4" stroke-linejoin="round" /><polygon points="53.4,99.0 69.8,89.5 69.8,108.5 53.4,118.0" fill="#ff5800" stroke="#0f172a" stroke-width="1.4" stroke-linejoin="round" /><polygon points="69.8,89.5 86.3,80.0 86.3,99.0 69.8,108.5" fill="#ff5800" stroke="#0f172a" stroke-width="1.4" stroke-linejoin="round" /><polygon points="86.3,80.0 102.7,70.5 102.7,89.5 86.3,99.0" fill="#ff5800" stroke="#0f172a" stroke-width="1.4" stroke-linejoin="round" /></g><text x="462.0" y="150.0" font-size="13" fill="#334155" text-anchor="middle" font-weight="600">3 OLL: žlutá nahoru</text><text x="462.0" y="165.0" font-size="13" fill="#334155" text-anchor="middle" font-weight="400">(orientace)</text><g transform="translate(592.2,12.0)"><polygon points="53.4,4.0 69.8,13.5 53.4,23.0 36.9,13.5" fill="#ffd500" stroke="#0f172a" stroke-width="1.4" stroke-linejoin="round" /><polygon points="69.8,13.5 86.3,23.0 69.8,32.5 53.4,23.0" fill="#ffd500" stroke="#0f172a" stroke-width="1.4" stroke-linejoin="round" /><polygon points="86.3,23.0 102.7,32.5 86.3,42.0 69.8,32.5" fill="#ffd500" stroke="#0f172a" stroke-width="1.4" stroke-linejoin="round" /><polygon points="36.9,13.5 53.4,23.0 36.9,32.5 20.5,23.0" fill="#ffd500" stroke="#0f172a" stroke-width="1.4" stroke-linejoin="round" /><polygon points="53.4,23.0 69.8,32.5 53.4,42.0 36.9,32.5" fill="#ffd500" stroke="#0f172a" stroke-width="1.4" stroke-linejoin="round" /><polygon points="69.8,32.5 86.3,42.0 69.8,51.5 53.4,42.0" fill="#ffd500" stroke="#0f172a" stroke-width="1.4" stroke-linejoin="round" /><polygon points="20.5,23.0 36.9,32.5 20.5,42.0 4.0,32.5" fill="#ffd500" stroke="#0f172a" stroke-width="1.4" stroke-linejoin="round" /><polygon points="36.9,32.5 53.4,42.0 36.9,51.5 20.5,42.0" fill="#ffd500" stroke="#0f172a" stroke-width="1.4" stroke-linejoin="round" /><polygon points="53.4,42.0 69.8,51.5 53.4,61.0 36.9,51.5" fill="#ffd500" stroke="#0f172a" stroke-width="1.4" stroke-linejoin="round" /><polygon points="4.0,32.5 20.5,42.0 20.5,61.0 4.0,51.5" fill="#009b48" stroke="#0f172a" stroke-width="1.4" stroke-linejoin="round" /><polygon points="20.5,42.0 36.9,51.5 36.9,70.5 20.5,61.0" fill="#009b48" stroke="#0f172a" stroke-width="1.4" stroke-linejoin="round" /><polygon points="36.9,51.5 53.4,61.0 53.4,80.0 36.9,70.5" fill="#009b48" stroke="#0f172a" stroke-width="1.4" stroke-linejoin="round" /><polygon points="4.0,51.5 20.5,61.0 20.5,80.0 4.0,70.5" fill="#009b48" stroke="#0f172a" stroke-width="1.4" stroke-linejoin="round" /><polygon points="20.5,61.0 36.9,70.5 36.9,89.5 20.5,80.0" fill="#009b48" stroke="#0f172a" stroke-width="1.4" stroke-linejoin="round" /><polygon points="36.9,70.5 53.4,80.0 53.4,99.0 36.9,89.5" fill="#009b48" stroke="#0f172a" stroke-width="1.4" stroke-linejoin="round" /><polygon points="4.0,70.5 20.5,80.0 20.5,99.0 4.0,89.5" fill="#009b48" stroke="#0f172a" stroke-width="1.4" stroke-linejoin="round" /><polygon points="20.5,80.0 36.9,89.5 36.9,108.5 20.5,99.0" fill="#009b48" stroke="#0f172a" stroke-width="1.4" stroke-linejoin="round" /><polygon points="36.9,89.5 53.4,99.0 53.4,118.0 36.9,108.5" fill="#009b48" stroke="#0f172a" stroke-width="1.4" stroke-linejoin="round" /><polygon points="53.4,61.0 69.8,51.5 69.8,70.5 53.4,80.0" fill="#ff5800" stroke="#0f172a" stroke-width="1.4" stroke-linejoin="round" /><polygon points="69.8,51.5 86.3,42.0 86.3,61.0 69.8,70.5" fill="#ff5800" stroke="#0f172a" stroke-width="1.4" stroke-linejoin="round" /><polygon points="86.3,42.0 102.7,32.5 102.7,51.5 86.3,61.0" fill="#ff5800" stroke="#0f172a" stroke-width="1.4" stroke-linejoin="round" /><polygon points="53.4,80.0 69.8,70.5 69.8,89.5 53.4,99.0" fill="#ff5800" stroke="#0f172a" stroke-width="1.4" stroke-linejoin="round" /><polygon points="69.8,70.5 86.3,61.0 86.3,80.0 69.8,89.5" fill="#ff5800" stroke="#0f172a" stroke-width="1.4" stroke-linejoin="round" /><polygon points="86.3,61.0 102.7,51.5 102.7,70.5 86.3,80.0" fill="#ff5800" stroke="#0f172a" stroke-width="1.4" stroke-linejoin="round" /><polygon points="53.4,99.0 69.8,89.5 69.8,108.5 53.4,118.0" fill="#ff5800" stroke="#0f172a" stroke-width="1.4" stroke-linejoin="round" /><polygon points="69.8,89.5 86.3,80.0 86.3,99.0 69.8,108.5" fill="#ff5800" stroke="#0f172a" stroke-width="1.4" stroke-linejoin="round" /><polygon points="86.3,80.0 102.7,70.5 102.7,89.5 86.3,99.0" fill="#ff5800" stroke="#0f172a" stroke-width="1.4" stroke-linejoin="round" /></g><text x="645.6" y="150.0" font-size="13" fill="#334155" text-anchor="middle" font-weight="600">4 PLL: vše na místa</text><text x="645.6" y="165.0" font-size="13" fill="#334155" text-anchor="middle" font-weight="400">(permutace)</text></svg>